<?xml version="1.0" encoding="utf-8"?>
<!-- Generator: Adobe Illustrator 27.3.1, SVG Export Plug-In . SVG Version: 6.00 Build 0)  -->
<svg version="1.1" xmlns="http://www.w3.org/2000/svg" xmlns:xlink="http://www.w3.org/1999/xlink" x="0px" y="0px"
	 viewBox="0 0 189 40" style="enable-background:new 0 0 189 40;" xml:space="preserve">
<style type="text/css">
	.st0{display:none;}
	.st1{display:inline;fill-rule:evenodd;clip-rule:evenodd;fill:#00B37E;}
	.st2{display:inline;fill:#FFFFFF;}
	.st3{fill:#FFFFFF;}
	.st4{display:inline;}
	.st5{fill:#2D903C;}
	.st6{fill:#96EAA1;}
	.st7{fill:#112121;}
	.st8{fill:#919191;}
	.st9{fill:#208E25;}
	.st10{fill:#59A55E;}
	.st11{fill:#A7A8A8;}
	.st12{fill:#031111;}
	.st13{fill:#071C1B;}
	.st14{fill:#FFFCC0;}
	.st15{fill:#131616;}
	.st16{fill:#EF754B;}
	.st17{display:inline;opacity:0.29;}
	.st18{fill:#FFFA4A;}
	.st19{fill:#EB2227;}
	.st20{fill:#165124;}
	.st21{fill:#216835;}
	.st22{fill:#3B3D3D;}
	.st23{fill:#EAE58F;}
	.st24{fill:#262626;}
</style>
<g id="Camada_1" class="st0">
	<path class="st1" d="M7.5,10c0-1.4,1.1-2.5,2.5-2.5h3.8c1.4,0,2.5,1.1,2.5,2.5v20c0,1.4-1.1,2.5-2.5,2.5H10c-1.4,0-2.5-1.1-2.5-2.5
		V10z M13.8,10H10v20h3.8V10z"/>
	<path class="st1" d="M23.8,10c0-1.4,1.1-2.5,2.5-2.5H30c1.4,0,2.5,1.1,2.5,2.5v20c0,1.4-1.1,2.5-2.5,2.5h-3.8
		c-1.4,0-2.5-1.1-2.5-2.5V10z M30,10h-3.8v20H30V10z"/>
	<path class="st1" d="M30,12.5c0-0.7,0.6-1.2,1.2-1.2H35c0.7,0,1.3,0.3,1.8,0.7c0.5,0.5,0.7,1.1,0.7,1.8v12.5c0,0.7-0.3,1.3-0.7,1.8
		c-0.5,0.5-1.1,0.7-1.8,0.7h-3.8c-0.7,0-1.2-0.6-1.2-1.2s0.6-1.2,1.2-1.2H35V13.8h-3.8C30.6,13.8,30,13.2,30,12.5z"/>
	<path class="st1" d="M3.2,12c0.5-0.5,1.1-0.7,1.8-0.7h3.8c0.7,0,1.2,0.6,1.2,1.2s-0.6,1.2-1.2,1.2H5v12.5h3.8
		c0.7,0,1.2,0.6,1.2,1.2s-0.6,1.2-1.2,1.2H5c-0.7,0-1.3-0.3-1.8-0.7c-0.5-0.5-0.7-1.1-0.7-1.8V13.8C2.5,13.1,2.8,12.5,3.2,12z"/>
	<path class="st1" d="M13.8,20c0-0.7,0.6-1.2,1.2-1.2h10c0.7,0,1.2,0.6,1.2,1.2s-0.6,1.2-1.2,1.2H15C14.3,21.2,13.8,20.7,13.8,20z"
		/>
	<path class="st1" d="M35,20c0-0.7,0.6-1.2,1.2-1.2h2.5c0.7,0,1.2,0.6,1.2,1.2s-0.6,1.2-1.2,1.2h-2.5C35.6,21.2,35,20.7,35,20z"/>
	<path class="st1" d="M0,20c0-0.7,0.6-1.2,1.2-1.2h2.5C4.4,18.8,5,19.3,5,20s-0.6,1.2-1.2,1.2H1.2C0.6,21.2,0,20.7,0,20z"/>
	<path class="st2" d="M58.5,9.6v19.9h-4.1V9.6H58.5z M71.4,14.7H75V29c0,1.3-0.3,2.5-0.9,3.4c-0.6,0.9-1.4,1.7-2.5,2.1
		c-1.1,0.5-2.3,0.7-3.7,0.7c-0.6,0-1.3-0.1-2-0.2c-0.7-0.2-1.3-0.4-2-0.8c-0.6-0.3-1.1-0.8-1.6-1.3l1.7-2.3c0.5,0.5,1,0.9,1.6,1.2
		c0.6,0.3,1.3,0.5,2,0.5c0.7,0,1.3-0.1,1.8-0.4c0.5-0.3,0.9-0.6,1.1-1.1c0.3-0.5,0.4-1.1,0.4-1.8V18.1L71.4,14.7z M61.5,22.3V22
		c0-1.1,0.1-2.2,0.4-3.1c0.3-0.9,0.7-1.7,1.2-2.4c0.5-0.7,1.1-1.2,1.9-1.5c0.7-0.4,1.6-0.5,2.5-0.5c1,0,1.8,0.2,2.5,0.5
		s1.2,0.9,1.6,1.6c0.4,0.7,0.8,1.5,1,2.4c0.2,0.9,0.4,1.9,0.6,3v0.6c-0.1,1-0.3,2-0.6,2.9c-0.3,0.9-0.6,1.7-1.1,2.3
		c-0.4,0.7-1,1.2-1.7,1.5c-0.7,0.4-1.4,0.5-2.4,0.5c-0.9,0-1.7-0.2-2.5-0.6c-0.7-0.4-1.4-0.9-1.9-1.6s-0.9-1.5-1.2-2.4
		C61.6,24.4,61.5,23.4,61.5,22.3z M65.4,22v0.3c0,0.6,0.1,1.2,0.2,1.7c0.1,0.5,0.3,1,0.5,1.4c0.3,0.4,0.6,0.7,0.9,0.9
		c0.4,0.2,0.8,0.3,1.4,0.3c0.7,0,1.3-0.2,1.8-0.5c0.5-0.3,0.8-0.7,1-1.3c0.2-0.5,0.4-1.2,0.4-1.9v-1.8c0-0.6-0.1-1.1-0.2-1.5
		c-0.1-0.5-0.3-0.9-0.6-1.2s-0.6-0.6-1-0.8c-0.4-0.2-0.9-0.3-1.4-0.3c-0.5,0-1,0.1-1.4,0.4c-0.4,0.2-0.7,0.5-0.9,0.9
		c-0.2,0.4-0.4,0.9-0.6,1.4C65.5,20.8,65.4,21.4,65.4,22z M81.9,17.9v11.6H78V14.7h3.7L81.9,17.9z M81.3,21.6h-1.1
		c0-1.1,0.1-2.1,0.4-3c0.3-0.9,0.7-1.6,1.2-2.3c0.5-0.6,1.1-1.1,1.8-1.4c0.7-0.3,1.5-0.5,2.4-0.5c0.7,0,1.3,0.1,1.9,0.3
		c0.6,0.2,1.1,0.5,1.5,1c0.4,0.4,0.7,1,1,1.7c0.2,0.7,0.3,1.6,0.3,2.6v9.4h-4v-9.4c0-0.7-0.1-1.2-0.3-1.5c-0.2-0.4-0.5-0.6-0.8-0.8
		c-0.3-0.2-0.8-0.2-1.3-0.2c-0.5,0-1,0.1-1.4,0.3c-0.4,0.2-0.7,0.5-1,0.9c-0.2,0.4-0.4,0.8-0.6,1.3C81.4,20.5,81.3,21,81.3,21.6z
		 M97.9,14.7v14.8h-4V14.7H97.9z M93.7,10.9c0-0.6,0.2-1,0.6-1.4c0.4-0.4,0.9-0.6,1.6-0.6c0.7,0,1.2,0.2,1.6,0.6
		c0.4,0.4,0.6,0.8,0.6,1.4c0,0.6-0.2,1-0.6,1.4c-0.4,0.4-0.9,0.6-1.6,0.6c-0.7,0-1.2-0.2-1.6-0.6C93.9,11.9,93.7,11.4,93.7,10.9z
		 M108.4,14.7v2.8h-8.6v-2.8H108.4z M101.9,11.1h3.9v14c0,0.4,0.1,0.8,0.2,1c0.1,0.2,0.3,0.4,0.5,0.5c0.2,0.1,0.5,0.1,0.9,0.1
		c0.2,0,0.5,0,0.7,0c0.2,0,0.4-0.1,0.5-0.1l0,2.9c-0.3,0.1-0.7,0.2-1.1,0.3s-0.8,0.1-1.3,0.1c-0.9,0-1.6-0.1-2.3-0.4
		c-0.6-0.3-1.1-0.8-1.5-1.4c-0.3-0.6-0.5-1.5-0.5-2.5V11.1z M117.5,29.8c-1.1,0-2.2-0.2-3.1-0.5c-0.9-0.4-1.7-0.9-2.3-1.5
		c-0.6-0.7-1.1-1.4-1.4-2.3c-0.3-0.9-0.5-1.8-0.5-2.8v-0.5c0-1.1,0.2-2.1,0.5-3.1c0.3-0.9,0.8-1.7,1.4-2.4c0.6-0.7,1.3-1.2,2.2-1.6
		c0.9-0.4,1.8-0.6,2.9-0.6c1,0,2,0.2,2.8,0.5c0.8,0.3,1.5,0.8,2,1.5c0.6,0.6,1,1.4,1.3,2.3c0.3,0.9,0.4,1.9,0.4,3v1.6h-11.8v-2.6
		h7.9v-0.3c0-0.5-0.1-1-0.3-1.5c-0.2-0.4-0.5-0.8-0.9-1c-0.4-0.3-0.9-0.4-1.5-0.4c-0.5,0-1,0.1-1.3,0.3c-0.4,0.2-0.7,0.5-0.9,1
		c-0.2,0.4-0.4,0.9-0.5,1.4c-0.1,0.5-0.2,1.1-0.2,1.8v0.5c0,0.6,0.1,1.1,0.2,1.6c0.2,0.5,0.4,0.9,0.7,1.3c0.3,0.4,0.7,0.6,1.1,0.8
		c0.5,0.2,1,0.3,1.5,0.3c0.7,0,1.4-0.1,2-0.4c0.6-0.3,1.2-0.7,1.6-1.3l1.9,2.1c-0.3,0.4-0.7,0.9-1.3,1.3c-0.5,0.4-1.2,0.7-1.9,1
		C119.3,29.6,118.4,29.8,117.5,29.8z M148.8,19.1V27c-0.3,0.4-0.8,0.8-1.4,1.2c-0.6,0.4-1.5,0.8-2.5,1.1s-2.3,0.5-3.7,0.5
		c-1.3,0-2.5-0.2-3.5-0.6c-1.1-0.4-2-1.1-2.7-1.9c-0.8-0.8-1.3-1.8-1.8-3c-0.4-1.2-0.6-2.6-0.6-4.1v-1.2c0-1.5,0.2-2.9,0.6-4.1
		c0.4-1.2,1-2.2,1.7-3c0.7-0.8,1.6-1.4,2.6-1.9c1-0.4,2.2-0.6,3.4-0.6c1.7,0,3.2,0.3,4.3,0.8c1.1,0.6,2,1.3,2.5,2.3
		c0.6,1,1,2.1,1.1,3.4h-4c-0.1-0.7-0.3-1.3-0.6-1.8s-0.7-0.9-1.2-1.2c-0.5-0.3-1.2-0.4-2-0.4c-0.7,0-1.3,0.1-1.8,0.4
		c-0.5,0.3-1,0.7-1.3,1.2c-0.4,0.5-0.6,1.2-0.8,2c-0.2,0.8-0.3,1.7-0.3,2.8v1.3c0,1,0.1,2,0.3,2.8c0.2,0.8,0.5,1.5,0.9,2
		c0.4,0.5,0.9,0.9,1.5,1.2c0.6,0.3,1.3,0.4,2,0.4c0.6,0,1.2-0.1,1.6-0.2c0.4-0.1,0.8-0.2,1.1-0.4c0.3-0.2,0.5-0.3,0.6-0.5V22h-3.7
		v-2.9H148.8z M156.2,27.8l3.9-13.1h4.2l-5.9,17c-0.1,0.4-0.3,0.8-0.5,1.2c-0.2,0.4-0.5,0.8-0.9,1.2c-0.4,0.4-0.8,0.7-1.4,1
		c-0.5,0.2-1.2,0.4-2,0.4c-0.4,0-0.7,0-0.9-0.1c-0.2,0-0.5-0.1-0.8-0.2v-2.9c0.1,0,0.2,0,0.3,0c0.1,0,0.2,0,0.3,0
		c0.5,0,0.9-0.1,1.3-0.2c0.3-0.1,0.6-0.3,0.8-0.5c0.2-0.2,0.4-0.5,0.5-0.9L156.2,27.8z M154.6,14.7l3.2,10.7l0.6,4.2l-2.7,0.3
		l-5.3-15.2H154.6z M169.9,17.8v11.7h-4V14.7h3.7L169.9,17.8z M169.3,21.6h-1.1c0-1,0.1-2,0.4-2.8c0.3-0.9,0.6-1.6,1.1-2.3
		c0.5-0.6,1.1-1.1,1.8-1.5c0.7-0.4,1.6-0.5,2.5-0.5c0.7,0,1.3,0.1,1.8,0.3c0.5,0.2,1,0.5,1.4,0.9c0.4,0.4,0.7,0.9,0.9,1.6
		c0.2,0.7,0.3,1.4,0.3,2.4v9.9h-3.9v-9.4c0-0.7-0.1-1.2-0.3-1.6c-0.2-0.4-0.4-0.6-0.8-0.8c-0.3-0.1-0.7-0.2-1.2-0.2
		c-0.5,0-1,0.1-1.3,0.3c-0.4,0.2-0.7,0.5-0.9,0.9c-0.2,0.4-0.4,0.8-0.5,1.3C169.4,20.5,169.3,21,169.3,21.6z M178.1,21.1l-1.4,0.2
		c0-1,0.1-1.9,0.4-2.7c0.2-0.8,0.6-1.6,1.1-2.2c0.5-0.6,1.1-1.1,1.8-1.5c0.7-0.4,1.5-0.5,2.5-0.5c0.7,0,1.4,0.1,1.9,0.3
		c0.6,0.2,1.1,0.5,1.5,1c0.4,0.4,0.7,1,1,1.7c0.2,0.7,0.3,1.6,0.3,2.6v9.4h-4v-9.4c0-0.7-0.1-1.2-0.3-1.6c-0.2-0.4-0.4-0.6-0.8-0.8
		c-0.3-0.1-0.7-0.2-1.2-0.2c-0.5,0-0.9,0.1-1.2,0.3c-0.4,0.2-0.7,0.4-0.9,0.8c-0.2,0.3-0.4,0.7-0.5,1.1
		C178.2,20.2,178.1,20.6,178.1,21.1z"/>
</g>
<g id="Camada_2">
	<path class="st3" d="M47.3,19.9l-8.8,12.4H51v2.4H34.6v-1.2c0-0.2,0-0.3,0.1-0.5c0.1-0.1,0.1-0.3,0.2-0.4L44,19.9 M47.3,15.3H35.2
		v-2.4h16C51.2,14.4,47.3,15.3,47.3,15.3z"/>
	<path class="st3" d="M61.1,29.1V17.8h2.7v15.4C61.6,33.2,61.1,29.1,61.1,29.1z M56.9,33.4c-0.8,0-2.4-0.1-3-0.4
		c-0.6-0.3-1.2-0.7-1.6-1.2c-0.4-0.5-0.8-1.1-1-1.8c-0.2-0.7-0.3-1.5-0.3-2.4v-9.8h2.7v9.8c0,1.2,0.3,2.1,0.8,2.7s1.3,1,2.4,1"/>
	<path class="st3" d="M77.4,20.8c-0.1,0.1-0.2,0.2-0.2,0.3c-0.1,0.1-0.2,0.1-0.3,0.1c-0.2,0-0.3-0.1-0.5-0.2
		c-0.2-0.1-0.4-0.3-0.7-0.4c-0.3-0.2-0.6-0.3-1-0.4c-0.4-0.1-0.9-0.2-1.4-0.2c-0.8,0-1.4,0.1-2,0.4c-0.6,0.3-1.1,0.7-1.5,1.2
		s-0.7,1.1-0.9,1.8c-0.2,0.7-0.3,1.5-0.3,2.4c0,0.9,0.1,1.8,0.3,2.5c0.2,0.7,0.5,1.3,0.9,1.8c0.4,0.5,0.9,0.9,1.4,1.1
		c0.6,0.3,1.2,0.4,1.9,0.4c0.7,0,1.2-0.1,1.6-0.2c0.4-0.2,0.8-0.3,1.1-0.5c0.3-0.2,0.5-0.4,0.7-0.5c0.2-0.2,0.4-0.2,0.6-0.2
		c0.2,0,0.4,0.1,0.5,0.3l0.8,1c-0.3,0.4-0.7,0.8-1.1,1.1c-0.4,0.3-0.9,0.5-1.4,0.7c-0.5,0.2-1,0.3-1.5,0.4c-0.5,0.1-1.1,0.1-1.6,0.1
		c-1,0-1.9-0.2-2.7-0.5c-0.8-0.4-1.5-0.9-2.2-1.5c-0.6-0.7-1.1-1.5-1.4-2.5c-0.3-1-0.5-2.1-0.5-3.4c0-1.1,0.2-2.2,0.5-3.2
		c0.3-1,0.8-1.8,1.4-2.5c0.6-0.7,1.4-1.3,2.3-1.7c0.9-0.4,1.9-0.6,3.1-0.6c1.1,0,2,0.2,2.9,0.5c0.8,0.4,1.6,0.8,2.2,1.5L77.4,20.8z"
		/>
	<path class="st3" d="M91.7,22.7v10.7h-1.2c-0.3,0-0.5,0-0.6-0.1c-0.1-0.1-0.3-0.3-0.3-0.5l-0.3-1.5c-0.4,0.4-0.8,0.7-1.2,1
		c-0.4,0.3-0.8,0.5-1.2,0.7c-0.4,0.2-0.9,0.4-1.4,0.5c-0.5,0.1-1,0.2-1.6,0.2c-0.6,0-1.2-0.1-1.7-0.3c-0.5-0.2-1-0.4-1.4-0.8
		c-0.4-0.3-0.7-0.8-0.9-1.3c-0.2-0.5-0.3-1.1-0.3-1.8c0-0.6,0.2-1.2,0.5-1.8c0.3-0.6,0.9-1.1,1.6-1.5c0.8-0.4,1.7-0.8,2.9-1.1
		c1.2-0.3,2.7-0.4,4.4-0.5C89,24.8,89.6,22.7,91.7,22.7z M88.3,20.9c-0.5-0.6-1.3-0.9-2.3-0.9c-0.7,0-1.2,0.1-1.7,0.3
		c-0.5,0.2-0.8,0.4-1.2,0.6c-0.3,0.2-0.6,0.4-0.9,0.6c-0.2,0.2-0.5,0.3-0.7,0.3c-0.2,0-0.3,0-0.5-0.1c-0.1-0.1-0.2-0.2-0.3-0.4
		l-0.5-0.9c0.9-0.8,1.8-1.4,2.8-1.8c1-0.4,2.1-0.6,3.3-0.6c0.9,0,1.6,0.1,2.3,0.4c0.7,0.3,1.2,0.7,1.7,1.2 M89,26.5
		c-1.2,0-2.3,0.1-3.2,0.3c-0.9,0.2-1.6,0.4-2.1,0.6c-0.6,0.3-1,0.6-1.2,0.9c-0.2,0.3-0.4,0.7-0.4,1.2c0,0.4,0.1,0.8,0.2,1.1
		c0.1,0.3,0.3,0.5,0.5,0.7c0.2,0.2,0.5,0.3,0.8,0.4c0.3,0.1,0.6,0.1,1,0.1c0.5,0,0.9,0,1.3-0.1c0.4-0.1,0.8-0.2,1.1-0.4
		c0.4-0.2,0.7-0.4,1-0.7c0.3-0.3,0.6-0.5,0.9-0.9V26.5z"/>
	<path class="st3" d="M104.8,17.9h3.4v1c0,0.3-0.2,0.5-0.6,0.6l-4.1,0.2C103.5,18.2,104.8,17.9,104.8,17.9z M100.6,19
		c-1.1,0-1.9,0.3-2.5,0.8c-0.6,0.6-0.9,1.3-0.9,2.3c0,0.5,0.1,0.9,0.2,1.3c0.1,0.4,0.4,0.7,0.6,1c0.3,0.3,0.6,0.5,1.1,0.6
		c0.4,0.2,0.9,0.2,1.4,0.2c0.5,0,1-0.1,1.4-0.2c0.4-0.2,0.8-0.4,1.1-0.6c0.3-0.3,0.5-0.6,0.6-1c0.1-0.4,0.2-0.8,0.2-1.3l2.4-0.1
		c0,0.7-0.1,1.4-0.4,2c-0.3,0.6-0.7,1.1-1.2,1.6c-0.5,0.4-1.1,0.8-1.8,1c-0.7,0.2-1.5,0.4-2.3,0.4c-0.7,0-1.4-0.1-2-0.3
		c-0.3,0.2-0.6,0.4-0.7,0.6c-0.2,0.2-0.3,0.5-0.3,0.7c0,0.4,0.1,0.6,0.4,0.8c0.3,0.2,0.7,0.3,1.2,0.4c0.5,0.1,1,0.1,1.7,0.2
		c0.6,0,1.3,0.1,1.9,0.1c0.7,0,1.3,0.1,1.9,0.2c0.6,0.1,1.2,0.3,1.7,0.5c0.5,0.3,0.9,0.6,1.2,1c0.3,0.4,0.4,1,0.4,1.7
		c0,0.7-0.2,1.3-0.5,1.9c-0.3,0.6-0.8,1.2-1.4,1.7c-0.6,0.5-1.4,0.9-2.3,1.2c-0.9,0.3-1.9,0.4-3,0.4c-1.1,0-2.1-0.1-3-0.3
		c-0.8-0.2-1.5-0.5-2.1-0.9c-0.6-0.4-1-0.8-1.3-1.3c-0.3-0.5-0.4-1-0.4-1.5c0-0.8,0.2-1.4,0.7-1.9c0.5-0.5,1.1-0.9,2-1.3
		c-0.5-0.2-0.8-0.5-1.1-0.8c-0.3-0.3-0.4-0.8-0.4-1.4c0-0.2,0-0.5,0.1-0.7c0.1-0.2,0.2-0.5,0.4-0.7c0.2-0.2,0.4-0.5,0.6-0.7
		c0.2-0.2,0.5-0.4,0.9-0.6c-0.8-0.4-1.4-1-1.8-1.7c-0.4-0.7-0.6-1.5-0.6-2.5c0-0.8,0.1-1.4,0.4-2c0.3-0.6,0.7-1.1,1.2-1.6
		c0.5-0.4,1.1-0.8,1.8-1c0.7-0.2,1.5-0.4,2.4-0.4c0.7,0,1.9,0.2,1.9,0.2C102.5,18.1,100.6,19,100.6,19z M103.1,19.8 M105.5,33.6
		c0-0.4-0.1-0.7-0.3-0.9c-0.2-0.2-0.5-0.4-0.9-0.5c-0.4-0.1-0.8-0.2-1.3-0.3c-0.5-0.1-1-0.1-1.5-0.1c-0.5,0-1.1-0.1-1.6-0.1
		c-0.5,0-1.1-0.1-1.6-0.2c-0.6,0.3-1,0.6-1.4,1c-0.4,0.4-0.5,0.9-0.5,1.4c0,0.3,0.1,0.7,0.3,1c0.2,0.3,0.4,0.6,0.8,0.8
		c0.4,0.2,0.8,0.4,1.4,0.5c0.6,0.1,1.2,0.2,2,0.2c0.7,0,1.4-0.1,2-0.2s1.1-0.3,1.5-0.6c0.4-0.2,0.7-0.5,0.9-0.9
		C105.4,34.3,105.5,34,105.5,33.6z"/>
	<path class="st3" d="M114.8,18.8c0.6-0.7,1.6-0.9,2.6-0.9c0.3,0,0.6,0,0.9,0.1c0.3,0.1,0.6,0.2,0.8,0.3l-0.2,2
		c-0.1,0.3-0.2,0.4-0.5,0.4c-0.1,0-0.4,0-0.6-0.1c-0.3-0.1-0.6-0.1-0.9-0.1c-0.5,0-0.9,0.1-1.3,0.2c-0.4,0.1-0.7,0.4-1,0.6
		C114.6,21.4,114,19.6,114.8,18.8z M113.1,23.8v9.7h-2.7V18.2C113,18.2,113.1,23.8,113.1,23.8z"/>
	<path class="st3" d="M132.5,22.7v10.7h-1.2c-0.3,0-0.5,0-0.6-0.1c-0.1-0.1-0.3-0.3-0.3-0.5l-0.3-1.5c-0.4,0.4-0.8,0.7-1.2,1
		c-0.4,0.3-0.8,0.5-1.2,0.7c-0.4,0.2-0.9,0.4-1.4,0.5c-0.5,0.1-1,0.2-1.6,0.2c-0.6,0-1.2-0.1-1.7-0.3c-0.5-0.2-1-0.4-1.4-0.8
		c-0.4-0.3-0.7-0.8-0.9-1.3c-0.2-0.5-0.3-1.1-0.3-1.8c0-0.6,0.2-1.2,0.5-1.8c0.3-0.6,0.9-1.1,1.6-1.5c0.8-0.4,1.7-0.8,2.9-1.1
		c1.2-0.3,2.7-0.4,4.4-0.5C129.8,24.8,130.4,22.7,132.5,22.7z M129.1,20.9c-0.5-0.6-1.3-0.9-2.3-0.9c-0.7,0-1.2,0.1-1.7,0.3
		c-0.5,0.2-0.8,0.4-1.2,0.6c-0.3,0.2-0.6,0.4-0.9,0.6c-0.2,0.2-0.5,0.3-0.7,0.3c-0.2,0-0.3,0-0.5-0.1c-0.1-0.1-0.2-0.2-0.3-0.4
		l-0.5-0.9c0.9-0.8,1.8-1.4,2.8-1.8c1-0.4,2.1-0.6,3.3-0.6c0.9,0,1.6,0.1,2.3,0.4c0.7,0.3,1.2,0.7,1.7,1.2 M129.8,26.5
		c-1.2,0-2.3,0.1-3.2,0.3c-0.9,0.2-1.6,0.4-2.1,0.6c-0.6,0.3-1,0.6-1.2,0.9c-0.2,0.3-0.4,0.7-0.4,1.2c0,0.4,0.1,0.8,0.2,1.1
		c0.1,0.3,0.3,0.5,0.5,0.7c0.2,0.2,0.5,0.3,0.8,0.4c0.3,0.1,0.6,0.1,1,0.1c0.5,0,0.9,0,1.3-0.1c0.4-0.1,0.8-0.2,1.1-0.4
		c0.4-0.2,0.7-0.4,1-0.7c0.3-0.3,0.6-0.5,0.9-0.9V26.5z"/>
	<path class="st3" d="M139.7,18.5c0.6-0.6,1.6-0.6,2.5-0.6c1,0,1.9,0.3,2.5,0.9c0.6,0.6,1.1,1.4,1.4,2.3c0.2-0.6,0.5-1,0.9-1.4
		c0.3-0.4,0.7-0.7,1.2-1c0.4-0.3,0.9-0.5,1.4-0.6c0.5-0.1,1-0.2,1.5-0.2c0.8,0,1.5,0.1,2.2,0.4c0.6,0.3,1.2,0.6,1.6,1.1
		c0.4,0.5,0.8,1.1,1,1.8c0.2,0.7,0.4,1.6,0.4,2.5v9.8h-2.7v-9.8c0-1.2-0.3-2.1-0.8-2.7c-0.5-0.6-1.3-0.9-2.3-0.9
		c-0.4,0-0.9,0.1-1.3,0.2c-0.4,0.2-0.8,0.4-1.1,0.7c-0.3,0.3-0.5,0.7-0.7,1.1c-0.2,0.5-0.3,1-0.3,1.6v9.8h-2.7v-9.8
		c0-1.2-0.2-2.2-0.7-2.8c-0.5-0.6-1.2-0.9-2.2-0.9 M138.1,22.1v11.5h-2.7V18.1C137.3,18.1,138.1,22.1,138.1,22.1z"/>
	<g class="st0">
		<g class="st4">
			<path class="st5" d="M149.4,14.1c-0.9,0.5,0.1,3.9,0.2,4.3c0.8,2.5,2.3,4.3,2.7,4.2c0.2-0.1,0.1-0.4,0.5-0.6
				c0.3-0.1,0.4,0,0.7-0.1c0.3-0.2,0.2-0.5,0.5-0.7c0.3-0.2,0.6,0,0.9-0.2c0.3-0.2,0.4-0.5,0.3-0.8c0-0.5-0.4-0.7-0.8-1.2
				c-0.5-0.6-0.6-1.1-0.9-1.5C152.8,15.9,150.3,13.6,149.4,14.1z"/>
		</g>
		<g class="st4">
			<path class="st5" d="M152.8,17.8c0.1,0.4,0.1,0.5,0.1,0.8c0,0.4-0.1,0.5-0.1,0.9c0,0.2,0.2,0.5,0.2,0.4c0.1,0,0-0.5,0.1-0.5
				c0,0,0.1,0.2,0.2,0.6c0.2,0.4,0.4,0.7,0.4,0.6c0.1,0-0.1-0.5,0-0.6c0.1-0.1,0.6,0.6,0.8,0.5c0.1-0.1,0-0.4,0.1-0.5
				c0.1-0.1,0.3,0,0.5,0c0-0.1,0-0.1,0-0.3c-0.1-0.4-0.4-0.5-0.8-1c-0.1-0.1-0.3-0.3-0.4-0.6c-0.2-0.4-0.3-0.7-0.4-0.9
				c-0.3-0.8-1-1.5-1.1-1.4C152.3,16.1,152.5,16.8,152.8,17.8z"/>
		</g>
		<g class="st4">
			<path class="st6" d="M151,19.4c0,0.1,0,0.3,0,0.5c0.1,0.2,0.1,0.3,0.5,0.8c0.3,0.5,0.4,0.5,0.4,0.7c0.2,0.4,0.2,0.7,0.3,0.7
				c0,0,0-0.3,0-0.6c0-0.2,0-0.6,0.1-0.6c0.1,0,0.1,0.2,0.4,0.5c0.1,0.1,0.3,0.3,0.4,0.3c0.1-0.1-0.2-0.6-0.4-0.9
				c-0.4-0.6-0.7-0.9-0.6-1.1c0-0.1,0.1,0,0.2-0.1c0.2-0.2-0.1-0.6,0-0.6c0.1,0,0.2,0.1,0.3,0.1c0.2-0.1,0.1-0.5,0.1-0.6
				c0-0.2-0.1-0.6-0.3-0.6c-0.3-0.1-0.6,0.3-0.6,0.3c-0.2,0.3-0.1,0.4-0.4,0.9C151.1,19.1,151,19.2,151,19.4z"/>
		</g>
		<g class="st4">
			<path class="st7" d="M149.3,16.1c0,0.3,0.1,0.5,0.3,1c0.7,1.9,0.5,2,1,2.9c0.6,1.2,1.3,1.9,1.3,1.9c0,0-0.6-0.7-0.8-1.7
				c-0.2-0.8,0-1,0.1-1.1c0.2-0.1,0.4,0,0.5-0.1c0.1-0.2-0.2-0.5-0.1-0.6c0.1-0.1,0.2,0.1,0.4,0.1c0.2-0.1,0.2-0.4,0.4-0.5
				c0.2-0.1,0.3,0,0.6,0c0.2,0,0.5,0,0.6-0.1c0.2-0.2-0.3-0.8-0.5-1.1c-1.5-1.8-2.2-2.8-2.8-2.6C149.6,14.4,149.3,15.4,149.3,16.1z"
				/>
		</g>
		<g class="st4">
			<path class="st8" d="M143,18.2c0,0,0.1,0,1.3-0.1c1.2-0.2,1.3-0.2,1.4-0.2c0.7-0.2,0.6-0.4,1.3-0.6c0.4-0.1,0.8-0.2,1.1-0.4
				c0.3-0.1,0.5-0.1,0.5-0.3c0-0.1-0.1-0.3-0.2-0.4c-0.1-0.1-0.3-0.1-0.3-0.1c-0.5-0.1-1,0.4-1.4,0.7c-0.3,0.2-0.8,0.4-1.7,0.7
				C143.8,17.9,143,18.1,143,18.2z"/>
		</g>
		<g class="st4">
			<path class="st9" d="M144.5,7c-0.1-0.2-0.1-0.2-0.2-0.3c-0.2-0.1-0.7,0.3-1,0.8c-0.1,0.2-0.3,0.6-0.2,1.9c0,0.9,0.2,2.2,0.4,2.2
				c0.1,0,0.2-0.6,0.3-0.6c0.1,0,0,0.4,0,0.9c0,0.6,0.3,1.3,0.9,2.6c0.2,0.4,0.4,0.8,0.5,0.8c0.1,0,0-0.7,0-0.7c0.1,0,0.2,0.5,0.5,1
				c0.2,0.3,0.4,0.5,0.5,0.5c0.1,0-0.1-0.4,0-0.4c0.1-0.1,0.7,0.7,0.8,0.7c0.1-0.1-0.6-1.1-0.9-2.1c-1.1-2.8-0.4-6.6-1.1-6.9
				C144.9,7.3,144.7,7.2,144.5,7z"/>
		</g>
		<g class="st4">
			<path class="st6" d="M144.1,10.3c-0.2,0.1-0.2,0.8-0.2,0.9c0,0.5,0.2,0.6,0.3,1.3c0,0.2,0.1,0.4,0.1,0.4c0,0,0.1-0.4,0.1-0.4
				c0,0,0,0.4,0.2,0.7c0,0.1,0.1,0.2,0.1,0.2c0.1,0,0.1-0.3,0.1-0.3c0,0,0,0.1,0,0.5c0,0.5-0.1,0.6,0,0.8c0.1,0.2,0.2,0.4,0.2,0.4
				c0,0-0.1-0.3,0-0.8c0-0.2,0.1-0.3,0.1-0.3c0.1,0,0,0.3,0.3,0.6c0,0,0.1,0.1,0.1,0.1c0.1,0,0.1-0.3,0.2-0.3c0,0,0.1,0.2,0.1,0.5
				c0,0.3,0,0.5,0,0.5c0,0,0.1-0.1,0.1,0c0.1,0,0.1,0.3,0.1,0.3c0,0,0-0.1,0.1-0.1c0.1,0,0.1,0.1,0.2,0.2c0.1,0.2,0.3,0.4,0.4,0.4
				c0.1,0,0-0.4-0.1-0.8C146.2,13.5,144.6,10.1,144.1,10.3z"/>
		</g>
		<g class="st4">
			<path class="st5" d="M144.7,7.9c-0.6,0.6-0.7,1.6-0.7,2c-0.1,1.1,0.4,2.2,0.6,2.2c0.1,0,0.1-0.3,0.2-0.3c0.1,0,0,0.4,0.1,0.9
				c0.1,0.7,0.4,1.4,0.6,1.3c0.1,0,0.1-0.3,0.2-0.3c0.1,0,0.2,0.6,0.3,0.8c0.3,1.1,1.4,1.7,1.7,1.9c0.8,0.4,2.5,0.9,3.3,0.1
				c0.8-0.7,0.6-2,0.3-4.5c-0.2-1.3-0.3-2-0.6-2.5C149.5,7.4,146,6.6,144.7,7.9z"/>
		</g>
		<g class="st4">
			<path class="st6" d="M143.7,6.9c-0.1,0.1-0.3,0.2-0.4,0.4c-0.2,0.2-0.4,0.7-0.3,2.2c0,0.5,0.1,1.1,0.3,1.8
				c0.1-0.2,0.2-0.4,0.2-0.8c0-0.4-0.1-0.8,0-0.8c0,0,0.1,0.1,0.2,0.1c0.1,0,0.1-0.3,0-0.6c-0.1-0.3-0.2-0.5-0.1-0.6
				c0,0,0.1,0.1,0.2,0.1c0.1,0,0-0.4,0-0.8C143.7,7.7,143.7,7.3,143.7,6.9z"/>
		</g>
		<g class="st4">
			<path class="st10" d="M144.2,8.4c-0.4,0.2-0.2,1.4,0,2c0.1,0.5,0.3,1,0.4,1c0.1,0,0.2-0.5,0.3-0.5c0.1,0,0.2,0.5,0.3,0.5
				c0.1,0,0.1-0.3,0.2-0.3c0.1,0,0.1,0.1,0.3,0.2c0.2,0.1,0.3,0.1,0.5,0.1c0.6,0.1,0.9,0.7,1,0.7c0.1-0.1-0.1-0.6,0.1-0.7
				c0.2-0.1,0.6,0.5,0.9,0.4c0.3-0.1,0.1-0.7,0.5-0.8c0.3-0.1,0.7,0.2,0.8,0.1c0.1-0.1-0.1-0.4,0-0.5c0.1-0.1,0.3,0.1,0.5,0
				c0.3-0.1,0.3-0.8,0.3-0.9c0-0.2-0.1-1.4-0.8-1.7c-0.7-0.3-1.5,0.4-1.9,0.9c-0.4,0.6-0.3,1-0.6,1.1
				C146.3,10.3,144.8,8.1,144.2,8.4z"/>
		</g>
		<g class="st4">
			<path class="st11" d="M149.2,17.7c-0.1,0-0.2,0-0.3,0c-0.1,0-0.2,0-0.3,0.1c-0.1,0.1-0.2,0.1-0.2,0.1c0,0.1,0,0.1,0,0.1
				c0.1,0.1,0.2,0.1,0.2,0.1c0.1,0,0.2-0.1,0.3-0.1c0.1-0.1,0.2-0.1,0.4-0.1c0.3-0.1,0.5-0.1,0.5-0.1
				C149.6,17.8,149.4,17.7,149.2,17.7z"/>
		</g>
		<g class="st4">
			<path class="st12" d="M148.4,17.9c-0.1-0.1-0.2,0-0.2,0c-0.2,0-0.3,0.2-0.3,0.2c-0.1,0.2-0.1,0.4-0.1,0.4c0-0.1,0.1-0.2,0.2-0.3
				c0,0,0.1-0.1,0.2-0.2c0.1-0.1,0.2,0,0.3-0.1C148.5,18,148.5,18,148.4,17.9z"/>
		</g>
		<g class="st4">
			<path class="st8" d="M151.8,16.6c-0.4,0-0.5,0.3-1.2,0.7c-0.2,0.1-0.6,0.3-1.1,0.4c0,0-0.5,0.1-0.9,0.3c0,0-0.1,0-0.2,0.1
				c-0.1,0.1-0.1,0.2-0.1,0.2c0,0,0,0,0,0c0,0,0,0,0.1,0c0,0,0.1,0,0.1,0.1c0,0.1,0,0.1,0,0.2c0.1-0.1,0.3-0.1,0.4-0.2
				c0.1,0,0.2-0.1,0.3-0.1c0.1-0.1,0.7-0.2,1,0c0.3,0.2,0.2,0.6,0.4,0.6c0.1,0,0.1,0,0.2-0.1c0,0,0-0.1,0-0.1c0-0.1,0-0.2,0-0.3
				c0-0.2,0.1-0.4,0.1-0.4c0.1-0.2,0.4-0.2,0.9-0.4c0.3-0.1,0.7-0.2,0.7-0.4C152.4,16.8,152.1,16.6,151.8,16.6z"/>
		</g>
		<g class="st4">
			<path class="st12" d="M150.7,18.5c0.1,0,0.1,0.2,0.1,0.2c0,0.2-0.1,0.4-0.1,0.4c-0.1,0.2-0.3,0.2-0.4,0.2c0.1,0,0.1-0.1,0.2-0.3
				c0-0.1,0.1-0.2,0.1-0.3c0-0.2-0.1-0.2,0-0.3C150.6,18.5,150.7,18.5,150.7,18.5z"/>
		</g>
		<g class="st4">
			<path class="st13" d="M147.7,13.7c0,0.3,0.4,0.5,1.5,1.3c0.9,0.6,1.6,1.1,2.1,1.4c0,0,0,0.1,0,0.2c0,0.1,0,0.2-0.1,0.2
				c0.1,0,0.1-0.1,0.1,0c0,0,0,0.1,0,0.1c0.1,0,0.2-0.1,0.2-0.1c0,0,0,0.1,0,0.1c0,0,0.1,0,0.2,0.1c0.1,0.1,0,0.2,0.1,0.2
				c0,0,0.1-0.1,0.1-0.1c0,0,0,0.1,0.1,0.2c0.1-0.1,0.3-0.2,0.4-0.3c0.3-0.3,0.2-0.7,0.2-0.9c0-1-0.9-2.3-2.1-3
				c-0.3-0.2-0.6-0.4-1-0.4C148.8,12.6,147.7,13.2,147.7,13.7z"/>
		</g>
		<g class="st4">
			<path class="st9" d="M149.1,7.3c0.2,1.3,0.7,1.6,1.1,2.7c0.4,1.2,0.2,2.4,0.4,2.4c0.1,0,0.2-0.6,0.3-0.6c0.1,0,0.2,0.3,0.2,0.6
				c0,0.3-0.1,0.4,0,0.5c0,0,0.2-0.3,0.3-0.3c0.1,0,0.1,0.7,0.2,1.6c0.1,1.6,0.2,1.7,0.3,1.7c0.2,0.1,0.5-0.7,0.7-0.7
				c0.1,0.1,0.2,0.6,0,1.1c-0.1,0.1-0.1,0.2-0.1,0.3c0,0.2,0,0.3,0.2,0.7c0.2,0.4,0.2,0.5,0.2,0.5c0.2,0,0.6-1.4,0.6-2.8
				c0.1-2.3-0.6-4.1-1-4.9c-1-2.1-2.8-3.9-3.2-3.7C148.9,6.4,149,6.8,149.1,7.3z"/>
		</g>
		<g class="st4">
			<path class="st11" d="M148.4,18.1c0,0-0.1,0-0.1,0.1c0,0.1,0,0.1,0,0.2c0,0.1,0.1,0.1,0.1,0.1c0.1,0,0.1,0,0.1,0
				c0.1,0,0.1-0.2,0.1-0.3C148.5,18.2,148.5,18.1,148.4,18.1z"/>
		</g>
		<g class="st4">
			<path class="st12" d="M148.4,18.3c-0.1,0-0.2,0-0.2,0.1c-0.2,0.1-0.2,0.3-0.2,0.3c0,0.2,0.1,0.4,0.1,0.4c0-0.1,0-0.2,0-0.3
				c0-0.1,0-0.2,0.1-0.2c0.1-0.1,0.2-0.1,0.2-0.2C148.5,18.3,148.4,18.3,148.4,18.3z"/>
		</g>
		<g class="st4">
			<path class="st6" d="M150.4,8.5c0,0.3,0.1,0.3,0.1,0.7c0.1,0.6,0,0.9,0.1,1.5c0.1,0.3,0.1,0.4,0.1,0.4c0.1,0,0.1-0.7,0.2-0.7
				c0.1,0,0.1,0.9,0.2,0.9c0,0,0.1-0.2,0.1-0.3c0.1-0.2,0.1-0.4,0.1-0.4c0,0-0.1,0.7-0.1,1.1c0,0.3-0.1,0.5,0,0.6
				c0.1,0,0.2-0.5,0.3-0.5c0.1,0,0.1,0.2,0.1,0.6c0.1,0.6,0,1.1,0.1,1.5c0,0.6,0.1,0.8,0.1,0.8c0.1,0,0.1-0.7,0.3-0.7
				c0.1,0,0.1,0.1,0.3,0.6c0.2,0.4,0.2,0.4,0.2,0.4c0.2,0.5,0.1,1,0.1,1c0,0,0.3-1,0.2-2.4c0-0.6-0.2-2-0.9-3.3
				c-0.4-0.7-0.8-1-1.2-2c-0.2-0.4-0.3-0.9-0.4-0.8C150.3,7.6,150.4,8.5,150.4,8.5z"/>
		</g>
		<g class="st4">
			<path class="st5" d="M150,7c0.3,0.4,0.6,0.9,0.7,1.6c0.1,0.7,0,1.3,0.1,1.3c0.1,0,0.2-0.7,0.2-0.7c0.1,0,0.1,1.2,0.2,1.2
				c0.1,0,0.1-0.5,0.2-0.5c0.1,0,0.1,2.1,0.3,2.2c0.1,0,0.3-0.6,0.4-0.6c0.2,0-0.2,2.3,0.1,2.3c0.1,0,0.2-0.3,0.3-0.3
				c0.1,0,0.2,0.1,0.2,0.6c0.1,0.9,0.1,1.8-0.1,2.2c0,0-0.1,0.1-0.1,0.3c0,0.1,0,0.3,0.1,0.3c0.1,0,0.3-1,0.4-1.5
				c0.3-2.2-0.5-4.2-0.9-5.1C151.8,9.5,151.2,8.2,150,7z"/>
		</g>
		<g class="st4">
			<path class="st6" d="M150.2,1.4c-0.2-0.4-0.3-0.5-0.4-0.5c0,0-0.1,0-0.1,0c-0.1,0-0.1-0.1-0.2-0.2c-0.1,0-0.1-0.1-0.1-0.1
				c0,0,0,0,0,0.1c0,0,0,0.1,0,0.1c0,0-0.1-0.1-0.1-0.1c-0.1-0.1-0.3-0.1-0.3-0.1c0,0,0,0,0.1,0.1c0,0,0,0.1,0,0.1
				c0,0-0.1,0-0.2-0.1c-0.1,0-0.3-0.1-0.3,0c0,0,0.1,0.1,0,0.1c0,0-0.1,0-0.2,0c-0.2,0-0.3,0-0.3,0c0,0,0,0.1,0,0.1c0,0-0.1,0-0.2,0
				c-0.1,0-0.2,0-0.2,0.1c0,0,0.1,0,0.1,0.1c0,0-0.1,0-0.3,0c-0.2,0-0.3,0-0.3,0.1c0,0,0.2,0,0.2,0c0,0-0.2,0-0.5,0.1
				c-0.2,0.1-0.2,0.1-0.2,0.1c0,0,0.1,0,0.1,0c0,0-0.1,0-0.3,0.1c-0.2,0-0.3,0.1-0.3,0.1c0,0,0.3,0.1,0.3,0.1c0,0-0.1,0-0.3,0
				c-0.2,0-0.4,0.1-0.4,0.1c0,0,0.2,0,0.2,0c0,0.1-0.2,0.2-0.3,0.2c-0.1,0-0.2,0.1-0.2,0.1c0,0,0.2,0.1,0.2,0.1c0,0-0.6,0.3-0.6,0.3
				c0,0,0.1,0,0.2,0c0,0.1-0.1,0.1-0.1,0.2c0,0-0.1,0.1-0.3,0.2c-0.1,0-0.1,0.1-0.1,0.1c0,0,0.1,0.1,0.2,0.1c0,0.1-0.1,0.1-0.3,0.3
				c0,0-0.2,0.1-0.2,0.2c0,0,0.2-0.1,0.3,0c0,0,0,0.1-0.2,0.2c-0.2,0.2-0.2,0.2-0.2,0.3c0,0,0.2,0,0.2,0c0,0-0.1,0.2-0.3,0.4
				c0,0-0.3,0.3-0.2,0.4c0,0,0.2,0,0.2,0c0,0-0.1,0.1-0.2,0.3c0,0-0.2,0.3-0.1,0.3c0,0,0.1-0.1,0.2,0c0,0,0,0.2-0.1,0.3
				c-0.1,0.2-0.1,0.2-0.1,0.2c-0.1,0.2-0.1,0.5,0,0.5c0,0,0.1-0.1,0.1-0.1c0,0,0,0.1-0.1,0.2C143.9,6.7,144,7,144.1,7
				c0.1,0,0-0.3,0.1-0.8c0.2-0.4,0.4-0.8,0.4-0.8c0.1-0.1,0.1-0.1,0.2-0.2c0.2-0.2,0.1-0.3,0.2-0.5c0.2-0.3,0.4-0.2,0.5-0.5
				c0-0.1,0-0.2,0.1-0.3c0.1-0.1,0.2-0.1,0.2-0.2c0.1-0.1,0-0.2,0.1-0.3c0.1-0.2,0.3-0.3,0.5-0.4c0.4-0.2,0.4-0.5,0.7-0.8
				c0.5-0.5,1.1-0.7,1.6-0.8C149.3,1.3,149.8,1.4,150.2,1.4z"/>
		</g>
		<g class="st4">
			<path class="st14" d="M150.6,1.7c-0.3-0.3-0.8-0.3-1.2-0.3c-1.8-0.1-3.2,1.4-3.6,1.9c-0.9,1-1.2,2-1.4,2.8
				c-0.2,0.7-0.4,1.5-0.2,1.6c0.1,0,0.2-0.2,0.2-0.1c0,0,0,0.1-0.1,0.4c0,0.1-0.1,0.3-0.1,0.5c0,0.2,0,0.2,0,0.2
				c0.1,0,0.2-0.1,0.2-0.1c0,0-0.1,0.2-0.1,0.4c-0.1,0.5,0.2,1,0.3,1.2c0.1,0.2,0.4,0.4,0.4,0.4c0.1,0,0-0.2,0-0.2
				c0,0,0.1,0.2,0.4,0.4c0.1,0.1,0.2,0.2,0.2,0.2c0.1,0,0.1-0.1,0.2-0.2c0.1,0,0.3,0.2,0.5,0.3c0.2,0.1,0.5,0.2,0.6,0.1
				c0.1-0.1-0.1-0.3,0-0.4c0.1-0.1,0.7,0.5,1,0.3c0.1-0.1,0-0.3,0.2-0.5c0.3-0.2,0.7,0.1,0.9-0.1c0.1-0.1-0.2-0.4-0.1-0.5
				c0,0,0.1-0.1,0.2-0.1c0.2,0,0.2,0,0.3-0.1c0.1-0.1-0.1-0.2,0-0.4c0.1-0.2,0.3-0.1,0.4-0.3c0.1-0.2-0.1-0.3,0-0.5
				c0.1-0.2,0.4-0.2,0.5-0.4c0.1-0.2,0-0.3-0.1-0.7c0-0.1-0.2-0.7-0.2-1.1c0-0.2,0-0.9,0.5-1.3c0.5-0.4,1.3,0,1.4-0.2
				c0.1-0.2-0.9-0.4-1.3-1.1C150.2,3.1,151,2.2,150.6,1.7z"/>
		</g>
		<g class="st4">
			<path class="st9" d="M150.4,1.6c-0.2-0.4-0.3-0.5-0.4-0.5c0,0-0.1,0-0.1,0c-0.1,0-0.1-0.1-0.2-0.2c-0.1,0-0.1-0.1-0.1-0.1
				c0,0,0,0,0,0.1c0,0,0,0.1,0,0.1c0,0-0.1-0.1-0.1-0.1c-0.1-0.1-0.3-0.1-0.3-0.1c0,0,0,0,0.1,0.1c0,0,0,0.1,0,0.1
				c0,0-0.1,0-0.2-0.1c-0.1,0-0.3-0.1-0.3,0c0,0,0.1,0.1,0,0.1c0,0-0.1,0-0.2,0c-0.2,0-0.3,0-0.3,0c0,0,0,0.1,0,0.1c0,0-0.1,0-0.2,0
				C148.1,1,148,1,148,1c0,0,0.1,0,0.1,0.1c0,0-0.1,0-0.3,0c-0.2,0-0.3,0-0.3,0.1c0,0,0.2,0,0.2,0c0,0-0.2,0-0.5,0.1
				C147,1.4,147,1.4,147,1.4c0,0,0.1,0,0.1,0c0,0-0.1,0-0.3,0.1c-0.2,0-0.3,0.1-0.3,0.1c0,0,0.3,0.1,0.3,0.1c0,0-0.1,0-0.3,0
				c-0.2,0-0.4,0.1-0.4,0.1c0,0,0.2,0,0.2,0c0,0.1-0.2,0.2-0.3,0.2c-0.1,0-0.2,0.1-0.2,0.1c0,0,0.2,0.1,0.2,0.1l0,0
				c0,0-0.6,0.3-0.6,0.3c0,0,0.1,0,0.2,0c0,0.1-0.1,0.1-0.1,0.2c0,0-0.1,0.1-0.3,0.2c-0.1,0-0.1,0.1-0.1,0.1c0,0,0.1,0.1,0.2,0.1
				c0,0.1-0.1,0.1-0.3,0.3c0,0-0.2,0.1-0.2,0.2c0,0,0.2-0.1,0.3,0c0,0,0,0.1-0.2,0.2c-0.2,0.2-0.2,0.2-0.2,0.3c0,0,0.2,0,0.2,0
				c0,0-0.1,0.2-0.3,0.4c0,0-0.3,0.3-0.2,0.4c0,0,0.2,0,0.2,0c0,0-0.1,0.1-0.2,0.3c0,0-0.2,0.3-0.1,0.3c0,0,0.1-0.1,0.2,0
				c0,0,0,0.2-0.1,0.3c-0.1,0.1-0.1,0.2-0.1,0.2c0,0.1,0,0.1,0,0.3c0,0.1,0,0.1,0,0.4c0,0.3,0,0.3,0,0.3c0,0,0.1,0,0.4-0.6
				c0.2-0.5,0.3-0.6,0.4-0.8c0.1-0.1,0.1-0.1,0.2-0.2c0.2-0.2,0.1-0.3,0.2-0.5c0.2-0.3,0.4-0.2,0.5-0.5c0-0.1,0-0.2,0.1-0.3
				c0.1-0.1,0.2-0.1,0.2-0.2c0.1-0.1,0-0.2,0.1-0.3c0.1-0.2,0.3-0.3,0.5-0.4c0.4-0.2,0.4-0.5,0.7-0.8c0.5-0.5,1.1-0.7,1.6-0.8
				C149.5,1.5,150.1,1.5,150.4,1.6z"/>
		</g>
		<g class="st4">
			<path class="st15" d="M150.4,1.4c0,0.1-0.1,0.2-0.1,0.3c0,0.1,0,0.2,0,0.4c0,0.2,0,0.3-0.1,0.5c-0.1,0.5-0.3,0.6-0.4,1.1
				c0,0.2,0,0.2-0.1,0.4c0,0-0.1,0.2,0,0.4c0,0.1,0.1,0.2,0.3,0.3c0.1,0.1,0.2,0.1,0.4,0.3c0,0,0,0,0.1,0.1c0.1,0.1,0.2,0.1,0.3,0.1
				c-0.2,0.1-0.3,0.1-0.3,0.2c0,0.1,0.3,0.1,0.5,0.1c0.9,0,1.3,0.2,1.4,0.1c0.1-0.2-1.8-0.5-1.9-1.4c-0.1-0.5,0.5-0.8,0.5-1.7
				c0-0.4-0.1-0.7-0.2-0.8c0,0,0-0.1,0-0.1C150.5,1.5,150.4,1.5,150.4,1.4z"/>
		</g>
		<g class="st4">
			<path class="st16" d="M149.7,2.2c-0.1-0.2-0.2-0.3-0.3-0.3c-0.2-0.1-0.5-0.2-0.8,0c0,0-0.4,0.2-0.4,0.6c0,0.3,0.3,0.5,0.4,0.5
				c0.3,0.2,0.7,0.2,1-0.1C149.7,2.7,149.8,2.4,149.7,2.2z"/>
		</g>
		<g class="st4">
			<path class="st3" d="M146.8,3.4c0.2-0.1,0.4,0.1,0.6,0.2c0.6,0.2,1,0,1,0.1c0,0-0.4,0.1-1,0.3c-0.1,0,0,0-0.9,0.5
				c-0.6,0.3-0.7,0.4-0.9,0.6c-0.2,0.1-0.3,0.3-0.4,0.3c0,0,0.3-0.2,0.5-0.6c0.2-0.3,0.2-0.4,0.4-0.6c0.2-0.1,0.5-0.1,0.5-0.2
				c0-0.1-0.2-0.1-0.2-0.3C146.5,3.5,146.7,3.4,146.8,3.4z"/>
		</g>
		<g class="st4">
			<path d="M155.1,5C155.1,5,155.1,5,155.1,5C155,5,155,5,155.1,5C155,4.9,155,4.9,155,4.9c-0.1-0.1-0.1-0.1-0.2-0.1
				c0,0-0.1,0-0.1,0l0,0c0,0,0-0.1,0.1-0.1c0.1,0,0.1-0.1,0.2-0.1c0.1-0.1,0.1-0.3,0.1-0.4c0-0.1,0-0.1,0-0.1c0,0,0,0,0,0
				c0,0,0.1,0.2,0.1,0.4C155.2,4.7,155.1,4.9,155.1,5C155.1,5,155.1,5,155.1,5z M154.7,4.7C154.7,4.7,154.8,4.8,154.7,4.7
				c0.1,0,0.2,0,0.3,0.1c0,0,0,0.1,0.1,0.1c0,0,0,0,0,0c0,0,0.1-0.2,0.1-0.5c0-0.2,0-0.3-0.1-0.4c0,0,0,0,0,0c0,0.1,0,0.3-0.1,0.4
				C154.9,4.6,154.8,4.7,154.7,4.7C154.8,4.7,154.7,4.7,154.7,4.7z"/>
		</g>
		<g class="st4">
			<g>
				<defs>
					<path id="SVGID_1_" d="M156.7,4c0-0.1-0.1-0.3-0.1-0.3c0-0.1-0.1-0.1-0.1-0.2c0,0,0.1,0.1,0.1,0.1c-1-1.1-2.2-1.5-2.7-1.7
						c-1.4-0.5-2.7-0.5-3.5-0.4c0,0.3-0.1,0.5-0.1,0.7c-0.1,0.4-0.2,0.7-0.3,1c-0.1,0.2-0.1,0.3-0.2,0.4c0.8,0.1,1.7,0.2,2.7,0.5
						c1.4,0.4,2.5,1,3.3,1.5C156.5,4.8,156.7,4.2,156.7,4z"/>
				</defs>
				<clipPath id="SVGID_00000157270910738062789670000016901973900259856806_">
					<use xlink:href="#SVGID_1_"  style="overflow:visible;"/>
				</clipPath>
				<g style="clip-path:url(#SVGID_00000157270910738062789670000016901973900259856806_);">
					<image style="overflow:visible;" width="10" height="10" xlink:href="816D7FD6.png"  transform="matrix(1 0 0 1 149 -1)">
					</image>
				</g>
			</g>
		</g>
		<g class="st4">
			<g>
				<defs>
					<path id="SVGID_00000039097102563710309520000007976779694840939172_" d="M156,6.4c0.1-0.1,0.1-0.2,0.1-0.2c0-0.1,0-0.2,0-0.3
						c-0.5-0.4-0.9-0.6-1.2-0.8c-0.1-0.1-0.3-0.1-0.4-0.2c-0.2-0.1-0.6-0.3-1.1-0.4c-0.3-0.1-0.4-0.1-1.1-0.3
						c-1.2-0.3-1.5-0.5-2.1-0.5c-0.2,0-0.3,0-0.4,0c0,0.1-0.1,0.3-0.1,0.4c0,0.2,0,0.3,0,0.4c0.1,0.1,0.2,0.2,0.3,0.2
						c0.4,0.2,0.7,0.4,1,0.6c0.2,0.1,0.4,0.2,0.7,0.4c0.2,0,0.5,0.1,0.9,0.1c0.7,0.1,1.7,0.3,2.8,0.8c0,0,0,0,0,0
						C155.5,6.5,155.9,6.6,156,6.4z"/>
				</defs>
				<clipPath id="SVGID_00000061469132970725582050000014796041835260808636_">
					<use xlink:href="#SVGID_00000039097102563710309520000007976779694840939172_"  style="overflow:visible;"/>
				</clipPath>
				<g style="clip-path:url(#SVGID_00000061469132970725582050000014796041835260808636_);">
					<image style="overflow:visible;" width="8" height="5" xlink:href="816D7FD3.png"  transform="matrix(1 0 0 1 149 3)">
					</image>
				</g>
			</g>
		</g>
		<g class="st4">
			<path class="st15" d="M157.4,7.4c0.1,0.2,0.2,0.3,0.2,0.4c0.1-0.1,0.1-0.2,0.2-0.3c0.5-1.2-0.3-2.6-0.6-3
				c-0.2-0.3-0.3-0.5-0.5-0.7c0,0-0.1-0.1-0.1-0.1c0,0,0.1,0.3,0,0.4c-0.1,0.1-0.3,0.1-0.3,0.1c-0.3,0-0.4-0.2-0.5-0.1
				c-0.1,0.1,0.1,0.2,0,0.5c0,0.2-0.2,0.3-0.3,0.4c-0.2,0.1-0.4,0.2-0.5,0.2c0.1,0.1,0.2,0.1,0.4,0.2c0.3,0.1,0.3,0.2,0.4,0.2
				c0.2,0.1,0.4,0.3,0.5,0.4C156.3,5.9,156.9,6.5,157.4,7.4z"/>
		</g>
		<g class="st4">
			<path class="st15" d="M157.5,7.8c-0.1-0.3-0.3-0.6-0.6-1c-0.1-0.1-0.4-0.5-0.8-0.9c0,0.1,0.1,0.2,0,0.3c0,0,0,0.1-0.1,0.2
				c-0.2,0.2-0.5,0.1-0.6,0.1c0,0,0,0,0,0c0,0,0.1,0,0.1,0.1C156.1,6.8,156.8,7.2,157.5,7.8z"/>
		</g>
		<g class="st17">
			<g>
				<path class="st18" d="M150.6,2.3c0,0.1,0,0.2,0,0.2c-0.1,0.4-0.2,0.7-0.3,1c0.5,0.1,1.1,0.1,1.7,0.3c0.9,0.2,1.7,0.5,2.3,0.7
					c-0.2-0.3-0.5-0.5-0.9-0.8C152.5,2.9,151.4,2.5,150.6,2.3z"/>
			</g>
		</g>
		<g class="st4">
			<path class="st19" d="M154.1,4.7c0,0.1-0.1,0.2-0.1,0.3c-0.1,0.2,0,0.4,0,0.4c0,0,0-0.1,0.1-0.2c0.1-0.2,0.3-0.2,0.3-0.3
				C154.3,4.9,154.2,4.8,154.1,4.7z"/>
		</g>
		<g class="st4">
			<path class="st19" d="M154.8,5.1c-0.1,0.1-0.1,0.3-0.1,0.4c0,0.2,0.2,0.4,0.2,0.4c0,0-0.1-0.1,0-0.3c0-0.2,0.2-0.2,0.2-0.3
				C155.1,5.2,154.9,5.1,154.8,5.1z"/>
		</g>
		<g class="st4">
			<path class="st19" d="M155.3,5.5c-0.1,0-0.1,0.2-0.1,0.4c0,0.1,0,0.3,0,0.3c0,0,0-0.1,0.1-0.2c0.1-0.1,0.3-0.1,0.3-0.1
				c0-0.1-0.1-0.2-0.1-0.2C155.5,5.5,155.4,5.4,155.3,5.5z"/>
		</g>
		<g class="st17">
			<g>
				<path class="st18" d="M150.1,4c0.1-0.1,0.3-0.1,0.4-0.1c0.3,0,0.6,0.2,0.6,0.3c0.2,0.2,0.2,0.2,0.4,0.5c0.2,0.2,0.4,0.3,0.4,0.3
					c0,0,0,0-0.7-0.1c-0.4-0.1-0.5-0.1-0.6-0.2c-0.5-0.2-0.5-0.3-0.5-0.3C150,4.2,150,4.1,150.1,4z"/>
			</g>
		</g>
		<g class="st4">
			<path class="st15" d="M150,2.2c-0.1-0.2-0.2-0.3-0.3-0.4c-0.2-0.1-0.6-0.2-0.9,0c0,0-0.4,0.3-0.4,0.6c0,0.4,0.3,0.5,0.4,0.6
				c0.3,0.2,0.8,0.2,1-0.1C150,2.7,150,2.5,150,2.2z"/>
		</g>
		<g class="st4">
			<g>
				<path class="st18" d="M149.9,2.2c-0.1-0.2-0.2-0.3-0.3-0.3c-0.2-0.1-0.5-0.2-0.8,0c0,0-0.4,0.2-0.4,0.6c0,0.3,0.3,0.5,0.4,0.5
					c0.3,0.2,0.7,0.2,1-0.1C149.9,2.7,150,2.5,149.9,2.2z"/>
			</g>
			<g>
				<path class="st15" d="M148.9,2.1c0,0,0.1-0.1,0.3-0.1c0,0,0.3,0,0.4,0.2c0,0,0.1,0.2,0,0.4c0,0-0.1,0.2-0.2,0.2
					c-0.2,0.1-0.4-0.1-0.5-0.2C148.8,2.4,148.9,2.2,148.9,2.1z"/>
			</g>
			<g>
				<path class="st20" d="M149,2.1c0,0,0,0.1,0.1,0.2c0,0.1,0,0.1,0.1,0.2c0.1,0.1,0.3,0.1,0.3,0.2c0,0-0.1,0-0.1,0
					c-0.2,0-0.3-0.1-0.3-0.3C148.9,2.3,149,2.1,149,2.1z"/>
			</g>
			<g>
				<path class="st21" d="M149.1,2.1c0,0,0,0.1,0,0.2c0,0.1,0.1,0.3,0.3,0.3c0,0,0.1,0,0.2,0c0.1-0.1,0-0.3-0.1-0.4
					C149.3,2.1,149.2,2.1,149.1,2.1z"/>
			</g>
			<g>
				<path class="st3" d="M149.2,2.1C149.2,2.2,149.2,2.2,149.2,2.1c0,0.1,0,0.2,0,0.2c0,0,0.1,0,0.1,0c0,0,0-0.1,0-0.1
					C149.3,2.1,149.2,2.1,149.2,2.1z"/>
			</g>
			<g>
				<path class="st3" d="M149.4,2.3C149.3,2.3,149.3,2.4,149.4,2.3c0,0.1,0,0.1,0,0.2c0,0,0.1,0,0.1,0c0,0,0-0.1,0-0.1
					C149.5,2.3,149.4,2.3,149.4,2.3z"/>
			</g>
			<g>
				<path class="st15" d="M148.7,2.3c0,0,0,0.1,0.1,0.3c0.1,0.2,0.3,0.3,0.3,0.3c0.2,0.1,0.3,0,0.3,0.1c0,0-0.2,0.1-0.4,0
					c-0.2-0.1-0.3-0.2-0.3-0.4C148.7,2.4,148.7,2.3,148.7,2.3z"/>
			</g>
		</g>
		<g class="st4">
			<path class="st22" d="M156.7,4.2c0.1-0.2-0.1-0.3,0-0.3c0,0,0.5,0.5,0.8,1.2c0.4,1,0.4,1.9,0.4,1.9c0,0,0-0.9-0.6-1.6
				c-0.4-0.5-1-0.7-1-0.9C156.3,4.4,156.6,4.4,156.7,4.2z"/>
		</g>
		<g class="st4">
			<path class="st22" d="M155.9,6.6c0,0,0.1,0,0.2-0.1c0-0.1,0-0.1,0-0.1c0,0,0,0.1,0.1,0.2c0.1,0.2,0.2,0.1,0.4,0.3
				c0.1,0.1,0.2,0.2,0.1,0.2c0,0-0.2-0.2-0.5-0.3C156.1,6.7,155.9,6.6,155.9,6.6z"/>
		</g>
		<g class="st4">
			<path class="st23" d="M150.3,5.2c-0.1,0.1-0.3,0.3-0.4,0.5c-0.2,0.3-0.2,0.7-0.2,1c0,0.4,0,0.8,0,0.8c0,0,0-1.1-0.3-1.1
				c-0.2,0-0.4,0.3-0.5,0.3c0,0,0.4-0.5,0.3-0.8c-0.1-0.2-0.3-0.2-0.3-0.3c0-0.2,0.5-0.2,0.6-0.4c0-0.2-0.5-0.4-0.4-0.5
				c0-0.1,0.3,0,0.6,0.1C149.9,4.9,150.2,5.1,150.3,5.2z"/>
		</g>
		<g class="st4">
			<path class="st23" d="M145.6,5.7c-0.1-0.1-1.2,1.2-1.2,1.3c0,0,0.5-0.4,0.6-0.3c0.1,0.1-0.2,0.6-0.3,0.8
				c-0.2,0.4-0.4,0.6-0.4,0.7c0.1,0.1,0.6-0.2,0.6-0.1c0.1,0.1-0.5,0.5-0.5,1.1c0,0.1,0,0.1,0.2,0.6c0,0.2,0.1,0.3,0.1,0.3
				c0.1,0,0-0.7,0.1-0.8c0.1,0,0.2,0.4,0.4,0.7c0.1,0.3,0.2,0.5,0.2,0.5c0.1,0,0-0.5,0.1-0.5c0.2-0.1,0.5,0.6,0.5,0.6
				c0,0-0.7-0.6-0.7-1.4c0-0.3,0.1-0.4,0.1-0.7c0-0.1,0-0.2-0.2-0.8c-0.1-0.4-0.1-0.4-0.1-0.5c0-0.1,0-0.3,0.1-0.8
				C145.5,5.9,145.6,5.7,145.6,5.7z"/>
		</g>
		<g class="st4">
			<path class="st24" d="M148.9,13.1c0-0.1,0.4-0.1,0.6-0.1c0.3,0,1,0,1.4,0.5c0.2,0.2,0.3,0.4,0.3,0.5c0,0-0.5-0.5-0.6-0.4
				c-0.1,0,0,0.2,0,0.3c0,0-0.2-0.3-0.4-0.3c-0.1,0-0.2,0-0.3,0C149.4,13.6,148.9,13.2,148.9,13.1z"/>
		</g>
	</g>
</g>
</svg>
